<?xml version="1.0" encoding="UTF-8" standalone="no"?>
<!DOCTYPE svg PUBLIC "-//W3C//DTD SVG 1.1//EN"
 "http://www.w3.org/Graphics/SVG/1.1/DTD/svg11.dtd">
<!-- Generated by graphviz version 8.0.5 (20230430.1635)
 -->
<!-- Pages: 1 -->
<svg width="1150pt" height="156pt"
 viewBox="0.00 0.00 1150.25 156.00" xmlns="http://www.w3.org/2000/svg" xmlns:xlink="http://www.w3.org/1999/xlink">
<g id="graph0" class="graph" transform="scale(1 1) rotate(0) translate(4 152)">
<polygon fill="white" stroke="none" points="-4,4 -4,-152 1146.25,-152 1146.25,4 -4,4"/>
<!-- 5082650640 -->
<g id="node1" class="node">
<title>5082650640</title>
<polygon fill="none" stroke="black" points="952.5,-27.5 952.5,-63.5 1142.25,-63.5 1142.25,-27.5 952.5,-27.5"/>
<text text-anchor="middle" x="964.62" y="-40.7" font-family="Times,serif" font-size="14.00">L</text>
<polyline fill="none" stroke="black" points="976.75,-28 976.75,-63.5"/>
<text text-anchor="middle" x="1018.88" y="-40.7" font-family="Times,serif" font-size="14.00">data &#45;8.0000</text>
<polyline fill="none" stroke="black" points="1061,-28 1061,-63.5"/>
<text text-anchor="middle" x="1101.62" y="-40.7" font-family="Times,serif" font-size="14.00">grad 1.0000</text>
</g>
<!-- 5082650640* -->
<g id="node2" class="node">
<title>5082650640*</title>
<ellipse fill="none" stroke="black" cx="889.5" cy="-45.5" rx="27" ry="18"/>
<text text-anchor="middle" x="889.5" y="-40.45" font-family="Times,serif" font-size="14.00">*</text>
</g>
<!-- 5082650640*&#45;&gt;5082650640 -->
<g id="edge1" class="edge">
<title>5082650640*&#45;&gt;5082650640</title>
<path fill="none" stroke="black" d="M916.94,-45.5C924.31,-45.5 932.79,-45.5 941.81,-45.5"/>
<polygon fill="black" stroke="black" points="941.61,-49 951.61,-45.5 941.61,-42 941.61,-49"/>
</g>
<!-- 5080996368 -->
<g id="node3" class="node">
<title>5080996368</title>
<polygon fill="none" stroke="black" points="319.5,-83.5 319.5,-119.5 512.25,-119.5 512.25,-83.5 319.5,-83.5"/>
<text text-anchor="middle" x="330.88" y="-96.7" font-family="Times,serif" font-size="14.00">d</text>
<polyline fill="none" stroke="black" points="342.25,-84 342.25,-119.5"/>
<text text-anchor="middle" x="384.38" y="-96.7" font-family="Times,serif" font-size="14.00">data &#45;6.0000</text>
<polyline fill="none" stroke="black" points="426.5,-84 426.5,-119.5"/>
<text text-anchor="middle" x="469.38" y="-96.7" font-family="Times,serif" font-size="14.00">grad &#45;2.0000</text>
</g>
<!-- 5080965712+ -->
<g id="node7" class="node">
<title>5080965712+</title>
<ellipse fill="none" stroke="black" cx="576" cy="-73.5" rx="27" ry="18"/>
<text text-anchor="middle" x="576" y="-68.45" font-family="Times,serif" font-size="14.00">+</text>
</g>
<!-- 5080996368&#45;&gt;5080965712+ -->
<g id="edge5" class="edge">
<title>5080996368&#45;&gt;5080965712+</title>
<path fill="none" stroke="black" d="M512.05,-84.65C521.49,-82.97 530.62,-81.36 538.85,-79.9"/>
<polygon fill="black" stroke="black" points="539.23,-83.21 548.47,-78.02 538.01,-76.32 539.23,-83.21"/>
</g>
<!-- 5080996368* -->
<g id="node4" class="node">
<title>5080996368*</title>
<ellipse fill="none" stroke="black" cx="255.75" cy="-101.5" rx="27" ry="18"/>
<text text-anchor="middle" x="255.75" y="-96.45" font-family="Times,serif" font-size="14.00">*</text>
</g>
<!-- 5080996368*&#45;&gt;5080996368 -->
<g id="edge2" class="edge">
<title>5080996368*&#45;&gt;5080996368</title>
<path fill="none" stroke="black" d="M283.22,-101.5C290.82,-101.5 299.61,-101.5 308.96,-101.5"/>
<polygon fill="black" stroke="black" points="308.74,-105 318.74,-101.5 308.74,-98 308.74,-105"/>
</g>
<!-- 4313741840 -->
<g id="node5" class="node">
<title>4313741840</title>
<polygon fill="none" stroke="black" points="4.88,-111.5 4.88,-147.5 187.88,-147.5 187.88,-111.5 4.88,-111.5"/>
<text text-anchor="middle" x="15.88" y="-124.7" font-family="Times,serif" font-size="14.00">a</text>
<polyline fill="none" stroke="black" points="26.88,-112 26.88,-147.5"/>
<text text-anchor="middle" x="66.75" y="-124.7" font-family="Times,serif" font-size="14.00">data 2.0000</text>
<polyline fill="none" stroke="black" points="106.62,-112 106.62,-147.5"/>
<text text-anchor="middle" x="147.25" y="-124.7" font-family="Times,serif" font-size="14.00">grad 6.0000</text>
</g>
<!-- 4313741840&#45;&gt;5080996368* -->
<g id="edge6" class="edge">
<title>4313741840&#45;&gt;5080996368*</title>
<path fill="none" stroke="black" d="M187.55,-113.46C198.51,-111.51 209.17,-109.61 218.64,-107.92"/>
<polygon fill="black" stroke="black" points="218.94,-111.25 228.17,-106.05 217.71,-104.36 218.94,-111.25"/>
</g>
<!-- 5080965712 -->
<g id="node6" class="node">
<title>5080965712</title>
<polygon fill="none" stroke="black" points="639,-55.5 639,-91.5 826.5,-91.5 826.5,-55.5 639,-55.5"/>
<text text-anchor="middle" x="650" y="-68.7" font-family="Times,serif" font-size="14.00">e</text>
<polyline fill="none" stroke="black" points="661,-56 661,-91.5"/>
<text text-anchor="middle" x="700.88" y="-68.7" font-family="Times,serif" font-size="14.00">data 4.0000</text>
<polyline fill="none" stroke="black" points="740.75,-56 740.75,-91.5"/>
<text text-anchor="middle" x="783.62" y="-68.7" font-family="Times,serif" font-size="14.00">grad &#45;2.0000</text>
</g>
<!-- 5080965712&#45;&gt;5082650640* -->
<g id="edge7" class="edge">
<title>5080965712&#45;&gt;5082650640*</title>
<path fill="none" stroke="black" d="M826.45,-56.73C835.55,-55.08 844.35,-53.49 852.33,-52.04"/>
<polygon fill="black" stroke="black" points="852.79,-55.34 862.01,-50.11 851.55,-48.45 852.79,-55.34"/>
</g>
<!-- 5080965712+&#45;&gt;5080965712 -->
<g id="edge3" class="edge">
<title>5080965712+&#45;&gt;5080965712</title>
<path fill="none" stroke="black" d="M603.25,-73.5C610.69,-73.5 619.27,-73.5 628.39,-73.5"/>
<polygon fill="black" stroke="black" points="628.32,-77 638.32,-73.5 628.32,-70 628.32,-77"/>
</g>
<!-- 5082979472 -->
<g id="node8" class="node">
<title>5082979472</title>
<polygon fill="none" stroke="black" points="639.75,-0.5 639.75,-36.5 825.75,-36.5 825.75,-0.5 639.75,-0.5"/>
<text text-anchor="middle" x="650" y="-13.7" font-family="Times,serif" font-size="14.00">f</text>
<polyline fill="none" stroke="black" points="660.25,-1 660.25,-36.5"/>
<text text-anchor="middle" x="702.38" y="-13.7" font-family="Times,serif" font-size="14.00">data &#45;2.0000</text>
<polyline fill="none" stroke="black" points="744.5,-1 744.5,-36.5"/>
<text text-anchor="middle" x="785.12" y="-13.7" font-family="Times,serif" font-size="14.00">grad 4.0000</text>
</g>
<!-- 5082979472&#45;&gt;5082650640* -->
<g id="edge9" class="edge">
<title>5082979472&#45;&gt;5082650640*</title>
<path fill="none" stroke="black" d="M825.56,-34.52C834.95,-36.16 844.06,-37.75 852.28,-39.18"/>
<polygon fill="black" stroke="black" points="851.45,-42.76 861.9,-41.03 852.65,-35.87 851.45,-42.76"/>
</g>
<!-- 4313734480 -->
<g id="node9" class="node">
<title>4313734480</title>
<polygon fill="none" stroke="black" points="318.75,-28.5 318.75,-64.5 513,-64.5 513,-28.5 318.75,-28.5"/>
<text text-anchor="middle" x="329.75" y="-41.7" font-family="Times,serif" font-size="14.00">c</text>
<polyline fill="none" stroke="black" points="340.75,-29 340.75,-64.5"/>
<text text-anchor="middle" x="384" y="-41.7" font-family="Times,serif" font-size="14.00">data 10.0000</text>
<polyline fill="none" stroke="black" points="427.25,-29 427.25,-64.5"/>
<text text-anchor="middle" x="470.12" y="-41.7" font-family="Times,serif" font-size="14.00">grad &#45;2.0000</text>
</g>
<!-- 4313734480&#45;&gt;5080965712+ -->
<g id="edge4" class="edge">
<title>4313734480&#45;&gt;5080965712+</title>
<path fill="none" stroke="black" d="M512.96,-62.91C522.1,-64.47 530.93,-65.97 538.91,-67.34"/>
<polygon fill="black" stroke="black" points="538.14,-70.93 548.58,-69.16 539.32,-64.03 538.14,-70.93"/>
</g>
<!-- 4313741712 -->
<g id="node10" class="node">
<title>4313741712</title>
<polygon fill="none" stroke="black" points="0,-56.5 0,-92.5 192.75,-92.5 192.75,-56.5 0,-56.5"/>
<text text-anchor="middle" x="11.38" y="-69.7" font-family="Times,serif" font-size="14.00">b</text>
<polyline fill="none" stroke="black" points="22.75,-57 22.75,-92.5"/>
<text text-anchor="middle" x="64.88" y="-69.7" font-family="Times,serif" font-size="14.00">data &#45;3.0000</text>
<polyline fill="none" stroke="black" points="107,-57 107,-92.5"/>
<text text-anchor="middle" x="149.88" y="-69.7" font-family="Times,serif" font-size="14.00">grad &#45;4.0000</text>
</g>
<!-- 4313741712&#45;&gt;5080996368* -->
<g id="edge8" class="edge">
<title>4313741712&#45;&gt;5080996368*</title>
<path fill="none" stroke="black" d="M192.55,-90.83C201.7,-92.4 210.54,-93.92 218.55,-95.29"/>
<polygon fill="black" stroke="black" points="217.8,-98.88 228.25,-97.12 218.98,-91.98 217.8,-98.88"/>
</g>
</g>
</svg>
