<?xml version="1.0" encoding="UTF-8" standalone="no"?>
<!DOCTYPE svg PUBLIC "-//W3C//DTD SVG 1.1//EN"
 "http://www.w3.org/Graphics/SVG/1.1/DTD/svg11.dtd">
<!-- Generated by graphviz version 8.0.5 (20230430.1635)
 -->
<!-- Pages: 1 -->
<svg width="1531pt" height="210pt"
 viewBox="0.00 0.00 1530.50 210.00" xmlns="http://www.w3.org/2000/svg" xmlns:xlink="http://www.w3.org/1999/xlink">
<g id="graph0" class="graph" transform="scale(1 1) rotate(0) translate(4 206)">
<polygon fill="white" stroke="none" points="-4,4 -4,-206 1526.5,-206 1526.5,4 -4,4"/>
<!-- 5071118352 -->
<g id="node1" class="node">
<title>5071118352</title>
<polygon fill="none" stroke="black" points="326.25,-55.5 326.25,-91.5 533.25,-91.5 533.25,-55.5 326.25,-55.5"/>
<text text-anchor="middle" x="349.25" y="-68.7" font-family="Times,serif" font-size="14.00">x2w2</text>
<polyline fill="none" stroke="black" points="372.25,-56 372.25,-91.5"/>
<text text-anchor="middle" x="412.12" y="-68.7" font-family="Times,serif" font-size="14.00">data 0.0000</text>
<polyline fill="none" stroke="black" points="452,-56 452,-91.5"/>
<text text-anchor="middle" x="492.62" y="-68.7" font-family="Times,serif" font-size="14.00">grad 0.5001</text>
</g>
<!-- 5071118800+ -->
<g id="node15" class="node">
<title>5071118800+</title>
<ellipse fill="none" stroke="black" cx="598.5" cy="-100.5" rx="27" ry="18"/>
<text text-anchor="middle" x="598.5" y="-95.45" font-family="Times,serif" font-size="14.00">+</text>
</g>
<!-- 5071118352&#45;&gt;5071118800+ -->
<g id="edge11" class="edge">
<title>5071118352&#45;&gt;5071118800+</title>
<path fill="none" stroke="black" d="M533.03,-90.06C542.97,-91.67 552.53,-93.22 561.1,-94.61"/>
<polygon fill="black" stroke="black" points="560.33,-98.19 570.76,-96.33 561.44,-91.28 560.33,-98.19"/>
</g>
<!-- 5071118352* -->
<g id="node2" class="node">
<title>5071118352*</title>
<ellipse fill="none" stroke="black" cx="261" cy="-73.5" rx="27" ry="18"/>
<text text-anchor="middle" x="261" y="-68.45" font-family="Times,serif" font-size="14.00">*</text>
</g>
<!-- 5071118352*&#45;&gt;5071118352 -->
<g id="edge1" class="edge">
<title>5071118352*&#45;&gt;5071118352</title>
<path fill="none" stroke="black" d="M288.42,-73.5C296.46,-73.5 305.86,-73.5 315.91,-73.5"/>
<polygon fill="black" stroke="black" points="315.6,-77 325.6,-73.5 315.6,-70 315.6,-77"/>
</g>
<!-- 4312504400 -->
<g id="node3" class="node">
<title>4312504400</title>
<polygon fill="none" stroke="black" points="0,-165.5 0,-201.5 198,-201.5 198,-165.5 0,-165.5"/>
<text text-anchor="middle" x="16.25" y="-178.7" font-family="Times,serif" font-size="14.00">w1</text>
<polyline fill="none" stroke="black" points="32.5,-166 32.5,-201.5"/>
<text text-anchor="middle" x="74.62" y="-178.7" font-family="Times,serif" font-size="14.00">data &#45;3.0000</text>
<polyline fill="none" stroke="black" points="116.75,-166 116.75,-201.5"/>
<text text-anchor="middle" x="157.38" y="-178.7" font-family="Times,serif" font-size="14.00">grad 1.0001</text>
</g>
<!-- 5071115664* -->
<g id="node11" class="node">
<title>5071115664*</title>
<ellipse fill="none" stroke="black" cx="261" cy="-128.5" rx="27" ry="18"/>
<text text-anchor="middle" x="261" y="-123.45" font-family="Times,serif" font-size="14.00">*</text>
</g>
<!-- 4312504400&#45;&gt;5071115664* -->
<g id="edge10" class="edge">
<title>4312504400&#45;&gt;5071115664*</title>
<path fill="none" stroke="black" d="M170.28,-165.56C179.67,-162.75 189.12,-159.71 198,-156.5 208.31,-152.78 219.28,-148.08 229.1,-143.59"/>
<polygon fill="black" stroke="black" points="230.24,-146.46 237.82,-139.05 227.28,-140.11 230.24,-146.46"/>
</g>
<!-- 5070247568 -->
<g id="node4" class="node">
<title>5070247568</title>
<polygon fill="none" stroke="black" points="2.25,-55.5 2.25,-91.5 195.75,-91.5 195.75,-55.5 2.25,-55.5"/>
<text text-anchor="middle" x="18.5" y="-68.7" font-family="Times,serif" font-size="14.00">w2</text>
<polyline fill="none" stroke="black" points="34.75,-56 34.75,-91.5"/>
<text text-anchor="middle" x="74.62" y="-68.7" font-family="Times,serif" font-size="14.00">data 1.0000</text>
<polyline fill="none" stroke="black" points="114.5,-56 114.5,-91.5"/>
<text text-anchor="middle" x="155.12" y="-68.7" font-family="Times,serif" font-size="14.00">grad 0.0000</text>
</g>
<!-- 5070247568&#45;&gt;5071118352* -->
<g id="edge6" class="edge">
<title>5070247568&#45;&gt;5071118352*</title>
<path fill="none" stroke="black" d="M195.38,-73.5C205.05,-73.5 214.4,-73.5 222.84,-73.5"/>
<polygon fill="black" stroke="black" points="222.75,-77 232.75,-73.5 222.75,-70 222.75,-77"/>
</g>
<!-- 5071429328 -->
<g id="node5" class="node">
<title>5071429328</title>
<polygon fill="none" stroke="black" points="690.38,-137.5 690.38,-173.5 874.12,-173.5 874.12,-137.5 690.38,-137.5"/>
<text text-anchor="middle" x="701.75" y="-150.7" font-family="Times,serif" font-size="14.00">b</text>
<polyline fill="none" stroke="black" points="713.12,-138 713.12,-173.5"/>
<text text-anchor="middle" x="753" y="-150.7" font-family="Times,serif" font-size="14.00">data 6.8813</text>
<polyline fill="none" stroke="black" points="792.88,-138 792.88,-173.5"/>
<text text-anchor="middle" x="833.5" y="-150.7" font-family="Times,serif" font-size="14.00">grad 0.5001</text>
</g>
<!-- 5071115728+ -->
<g id="node13" class="node">
<title>5071115728+</title>
<ellipse fill="none" stroke="black" cx="966" cy="-127.5" rx="27" ry="18"/>
<text text-anchor="middle" x="966" y="-122.45" font-family="Times,serif" font-size="14.00">+</text>
</g>
<!-- 5071429328&#45;&gt;5071115728+ -->
<g id="edge14" class="edge">
<title>5071429328&#45;&gt;5071115728+</title>
<path fill="none" stroke="black" d="M874.12,-141.5C893.41,-138.53 912.69,-135.56 928.5,-133.12"/>
<polygon fill="black" stroke="black" points="928.99,-136.43 938.35,-131.45 927.93,-129.52 928.99,-136.43"/>
</g>
<!-- 5070820560 -->
<g id="node6" class="node">
<title>5070820560</title>
<polygon fill="none" stroke="black" points="1338.75,-109.5 1338.75,-145.5 1522.5,-145.5 1522.5,-109.5 1338.75,-109.5"/>
<text text-anchor="middle" x="1350.12" y="-122.7" font-family="Times,serif" font-size="14.00">o</text>
<polyline fill="none" stroke="black" points="1361.5,-110 1361.5,-145.5"/>
<text text-anchor="middle" x="1401.38" y="-122.7" font-family="Times,serif" font-size="14.00">data 0.7071</text>
<polyline fill="none" stroke="black" points="1441.25,-110 1441.25,-145.5"/>
<text text-anchor="middle" x="1481.88" y="-122.7" font-family="Times,serif" font-size="14.00">grad 1.0000</text>
</g>
<!-- 5070820560tanh -->
<g id="node7" class="node">
<title>5070820560tanh</title>
<ellipse fill="none" stroke="black" cx="1275.75" cy="-127.5" rx="27" ry="18"/>
<text text-anchor="middle" x="1275.75" y="-122.45" font-family="Times,serif" font-size="14.00">tanh</text>
</g>
<!-- 5070820560tanh&#45;&gt;5070820560 -->
<g id="edge2" class="edge">
<title>5070820560tanh&#45;&gt;5070820560</title>
<path fill="none" stroke="black" d="M1303.03,-127.5C1310.45,-127.5 1319.01,-127.5 1328.1,-127.5"/>
<polygon fill="black" stroke="black" points="1327.97,-131 1337.97,-127.5 1327.97,-124 1327.97,-131"/>
</g>
<!-- 4312508304 -->
<g id="node8" class="node">
<title>4312508304</title>
<polygon fill="none" stroke="black" points="1.5,-110.5 1.5,-146.5 196.5,-146.5 196.5,-110.5 1.5,-110.5"/>
<text text-anchor="middle" x="16.25" y="-123.7" font-family="Times,serif" font-size="14.00">x1</text>
<polyline fill="none" stroke="black" points="31,-111 31,-146.5"/>
<text text-anchor="middle" x="70.88" y="-123.7" font-family="Times,serif" font-size="14.00">data 2.0000</text>
<polyline fill="none" stroke="black" points="110.75,-111 110.75,-146.5"/>
<text text-anchor="middle" x="153.62" y="-123.7" font-family="Times,serif" font-size="14.00">grad &#45;1.5002</text>
</g>
<!-- 4312508304&#45;&gt;5071115664* -->
<g id="edge12" class="edge">
<title>4312508304&#45;&gt;5071115664*</title>
<path fill="none" stroke="black" d="M196.3,-128.5C205.57,-128.5 214.53,-128.5 222.66,-128.5"/>
<polygon fill="black" stroke="black" points="222.55,-132 232.55,-128.5 222.55,-125 222.55,-132"/>
</g>
<!-- 4312514320 -->
<g id="node9" class="node">
<title>4312514320</title>
<polygon fill="none" stroke="black" points="3.75,-0.5 3.75,-36.5 194.25,-36.5 194.25,-0.5 3.75,-0.5"/>
<text text-anchor="middle" x="18.5" y="-13.7" font-family="Times,serif" font-size="14.00">x2</text>
<polyline fill="none" stroke="black" points="33.25,-1 33.25,-36.5"/>
<text text-anchor="middle" x="73.12" y="-13.7" font-family="Times,serif" font-size="14.00">data 0.0000</text>
<polyline fill="none" stroke="black" points="113,-1 113,-36.5"/>
<text text-anchor="middle" x="153.62" y="-13.7" font-family="Times,serif" font-size="14.00">grad 0.5001</text>
</g>
<!-- 4312514320&#45;&gt;5071118352* -->
<g id="edge7" class="edge">
<title>4312514320&#45;&gt;5071118352*</title>
<path fill="none" stroke="black" d="M167.33,-36.46C177.67,-39.59 188.17,-42.97 198,-46.5 208.06,-50.11 218.81,-54.57 228.49,-58.82"/>
<polygon fill="black" stroke="black" points="226.92,-62.4 237.48,-63.29 229.78,-56.01 226.92,-62.4"/>
</g>
<!-- 5071115664 -->
<g id="node10" class="node">
<title>5071115664</title>
<polygon fill="none" stroke="black" points="324,-110.5 324,-146.5 535.5,-146.5 535.5,-110.5 324,-110.5"/>
<text text-anchor="middle" x="347" y="-123.7" font-family="Times,serif" font-size="14.00">x1w1</text>
<polyline fill="none" stroke="black" points="370,-111 370,-146.5"/>
<text text-anchor="middle" x="412.12" y="-123.7" font-family="Times,serif" font-size="14.00">data &#45;6.0000</text>
<polyline fill="none" stroke="black" points="454.25,-111 454.25,-146.5"/>
<text text-anchor="middle" x="494.88" y="-123.7" font-family="Times,serif" font-size="14.00">grad 0.5001</text>
</g>
<!-- 5071115664&#45;&gt;5071118800+ -->
<g id="edge13" class="edge">
<title>5071115664&#45;&gt;5071118800+</title>
<path fill="none" stroke="black" d="M535.41,-110.93C544.57,-109.39 553.36,-107.91 561.31,-106.58"/>
<polygon fill="black" stroke="black" points="561.64,-109.9 570.92,-104.8 560.48,-103 561.64,-109.9"/>
</g>
<!-- 5071115664*&#45;&gt;5071115664 -->
<g id="edge3" class="edge">
<title>5071115664*&#45;&gt;5071115664</title>
<path fill="none" stroke="black" d="M288.42,-128.5C295.75,-128.5 304.2,-128.5 313.25,-128.5"/>
<polygon fill="black" stroke="black" points="313.11,-132 323.11,-128.5 313.11,-125 313.11,-132"/>
</g>
<!-- 5071115728 -->
<g id="node12" class="node">
<title>5071115728</title>
<polygon fill="none" stroke="black" points="1029,-109.5 1029,-145.5 1212.75,-145.5 1212.75,-109.5 1029,-109.5"/>
<text text-anchor="middle" x="1040.38" y="-122.7" font-family="Times,serif" font-size="14.00">n</text>
<polyline fill="none" stroke="black" points="1051.75,-110 1051.75,-145.5"/>
<text text-anchor="middle" x="1091.62" y="-122.7" font-family="Times,serif" font-size="14.00">data 0.8813</text>
<polyline fill="none" stroke="black" points="1131.5,-110 1131.5,-145.5"/>
<text text-anchor="middle" x="1172.12" y="-122.7" font-family="Times,serif" font-size="14.00">grad 0.5001</text>
</g>
<!-- 5071115728&#45;&gt;5070820560tanh -->
<g id="edge9" class="edge">
<title>5071115728&#45;&gt;5070820560tanh</title>
<path fill="none" stroke="black" d="M1212.57,-127.5C1221.3,-127.5 1229.76,-127.5 1237.5,-127.5"/>
<polygon fill="black" stroke="black" points="1237.25,-131 1247.25,-127.5 1237.25,-124 1237.25,-131"/>
</g>
<!-- 5071115728+&#45;&gt;5071115728 -->
<g id="edge4" class="edge">
<title>5071115728+&#45;&gt;5071115728</title>
<path fill="none" stroke="black" d="M993.28,-127.5C1000.7,-127.5 1009.26,-127.5 1018.35,-127.5"/>
<polygon fill="black" stroke="black" points="1018.22,-131 1028.22,-127.5 1018.22,-124 1018.22,-131"/>
</g>
<!-- 5071118800 -->
<g id="node14" class="node">
<title>5071118800</title>
<polygon fill="none" stroke="black" points="661.5,-82.5 661.5,-118.5 903,-118.5 903,-82.5 661.5,-82.5"/>
<text text-anchor="middle" x="699.5" y="-95.7" font-family="Times,serif" font-size="14.00">x1w1x2w2</text>
<polyline fill="none" stroke="black" points="737.5,-83 737.5,-118.5"/>
<text text-anchor="middle" x="779.62" y="-95.7" font-family="Times,serif" font-size="14.00">data &#45;6.0000</text>
<polyline fill="none" stroke="black" points="821.75,-83 821.75,-118.5"/>
<text text-anchor="middle" x="862.38" y="-95.7" font-family="Times,serif" font-size="14.00">grad 0.5001</text>
</g>
<!-- 5071118800&#45;&gt;5071115728+ -->
<g id="edge8" class="edge">
<title>5071118800&#45;&gt;5071115728+</title>
<path fill="none" stroke="black" d="M902.96,-118.28C912.07,-119.64 920.75,-120.93 928.57,-122.09"/>
<polygon fill="black" stroke="black" points="927.97,-125.69 938.38,-123.69 929,-118.76 927.97,-125.69"/>
</g>
<!-- 5071118800+&#45;&gt;5071118800 -->
<g id="edge5" class="edge">
<title>5071118800+&#45;&gt;5071118800</title>
<path fill="none" stroke="black" d="M625.93,-100.5C633.22,-100.5 641.64,-100.5 650.73,-100.5"/>
<polygon fill="black" stroke="black" points="650.67,-104 660.67,-100.5 650.67,-97 650.67,-104"/>
</g>
</g>
</svg>
